<svg xmlns="http://www.w3.org/2000/svg" width="45.805" height="44.66" viewBox="0 0 45.805 44.66">
  <path id="illustrator-icon" d="M20.1,20.206c-.191-.592-.363-1.164-.553-1.756s-.363-1.145-.515-1.7c-.153-.534-.286-1.031-.42-1.489H18.57a23.434,23.434,0,0,1-.649,2.462c-.286.916-.573,1.87-.878,2.825-.267.973-.553,1.87-.84,2.672h4.848c-.115-.4-.267-.878-.439-1.376-.172-.513-.344-1.067-.515-1.639ZM37.694.3H8.111A8.1,8.1,0,0,0,0,8.411V36.849A8.1,8.1,0,0,0,8.111,44.96H37.694a8.1,8.1,0,0,0,8.111-8.111V8.411A8.1,8.1,0,0,0,37.694.3ZM28.056,31.848H24.065a.287.287,0,0,1-.3-.21L22.2,27.1H15.1l-1.45,4.485a.337.337,0,0,1-.363.269H9.7c-.21,0-.267-.116-.21-.344l6.146-17.694c.057-.191.115-.4.191-.63a6.666,6.666,0,0,0,.115-1.241.189.189,0,0,1,.153-.21h4.943c.153,0,.229.057.248.153l6.966,19.658c.057.208,0,.305-.191.305Zm6.489-.286c0,.21-.074.305-.246.305H30.556a.268.268,0,0,1-.286-.305v-14.7c0-.191.078-.267.25-.267H34.3c.172,0,.246.1.246.267Zm-.4-17.234A2.251,2.251,0,0,1,32.407,15a2.37,2.37,0,0,1-1.7-.668,2.479,2.479,0,0,1-.649-1.756,2.251,2.251,0,0,1,.685-1.7,2.46,2.46,0,0,1,1.7-.668,2.285,2.285,0,0,1,1.737.668,2.41,2.41,0,0,1,.63,1.7,2.421,2.421,0,0,1-.666,1.756Z" transform="translate(0 -0.3)"/>
</svg>
