<svg id="_5151e0c8492e5103c096af88a51e75c7" data-name="5151e0c8492e5103c096af88a51e75c7" xmlns="http://www.w3.org/2000/svg" width="44.66" height="44.66" viewBox="0 0 44.66 44.66">
  <path id="Path_20" data-name="Path 20" d="M.544.5C.494.507.5.567.5.627V45.11c14.8.1,29.786.014,44.658.042V.5ZM23.17,39.974A6.463,6.463,0,0,1,18.5,41.63a6.55,6.55,0,0,1-6.282-3.82q1.684-1.075,3.439-2.08c.477,1.334,2.088,2.833,3.905,1.91,1.152-.585,1.019-2.361,1.019-4.287V21.128c0-.06-.007-.12.042-.127h4.118V31.273C24.741,35,25.007,38.123,23.17,39.974Zm18.424-3.693c-.234,3.486-3.08,5.337-6.919,5.348a8.14,8.14,0,0,1-7.641-4.245c1.056-.727,2.253-1.312,3.354-1.995a4.951,4.951,0,0,0,4.67,2.5c1.41-.123,3.046-1.272,2.122-3.014a4.861,4.861,0,0,0-2.5-1.7c-3.09-1.348-6.715-2.584-6.368-7.428a4.954,4.954,0,0,1,1.826-3.565,6.451,6.451,0,0,1,4.075-1.443,6.323,6.323,0,0,1,6.155,3.311,34.353,34.353,0,0,1-3.269,2.122,2.888,2.888,0,0,0-3.651-1.57,1.846,1.846,0,0,0-.934,2.292c.32.971,1.625,1.5,2.674,1.953C38.361,30.214,41.911,31.543,41.593,36.282Z" transform="translate(-0.5 -0.5)" fill-rule="evenodd"/>
</svg>
