<svg xmlns="http://www.w3.org/2000/svg" width="45.805" height="44.66" viewBox="0 0 45.805 44.66">
  <path id="xd-icon" d="M37.694.3H8.111A8.1,8.1,0,0,0,0,8.411V36.849A8.1,8.1,0,0,0,8.111,44.96H37.694a8.1,8.1,0,0,0,8.111-8.111V8.411A8.1,8.1,0,0,0,37.694.3Zm6.184,35.8a6.915,6.915,0,0,1-6.909,6.947H8.837a6.94,6.94,0,0,1-6.928-6.928V9.137A6.94,6.94,0,0,1,8.837,2.209H36.949a6.928,6.928,0,0,1,6.928,6.928V36.1ZM18.112,21.2l5.344,10.268c.1.153.038.305-.115.305H20.021a.375.375,0,0,1-.4-.248C18.4,29,17.158,26.485,15.879,23.775h-.038c-1.145,2.557-2.4,5.248-3.626,7.768a.367.367,0,0,1-.344.21H8.722c-.191,0-.21-.153-.115-.267l5.229-9.963L8.779,11.446a.154.154,0,0,1,.115-.267h3.283a.3.3,0,0,1,.344.21c1.2,2.519,2.424,5.115,3.569,7.653h.038c1.107-2.519,2.328-5.134,3.512-7.634.1-.153.153-.248.344-.248h3.073c.153,0,.21.115.115.267L18.112,21.2Zm6.279,3.111c0-4.447,2.958-7.92,7.653-7.92a8.463,8.463,0,0,1,.992.038V11.37a.191.191,0,0,1,.191-.191h3.015c.153,0,.191.057.191.153v17.52a13.594,13.594,0,0,0,.1,1.87c0,.115-.038.153-.153.21a11.369,11.369,0,0,1-4.886,1.107c-4.142.019-7.1-2.538-7.1-7.73Zm8.646-4.886a2.886,2.886,0,0,0-1.107-.191c-2.4,0-4.084,1.851-4.084,4.924,0,3.512,1.718,4.924,3.874,4.924a3.6,3.6,0,0,0,1.317-.21Z" transform="translate(0 -0.3)"/>
</svg>
