<svg xmlns="http://www.w3.org/2000/svg" width="44.66" height="44.66" viewBox="0 0 44.66 44.66">
  <path id="cinema4d-icon" d="M46.66,24.33a7.761,7.761,0,0,0-2.648-5.817A17.694,17.694,0,0,0,30.134,4.633,7.76,7.76,0,0,0,24.33,2,22.318,22.318,0,0,0,2.978,30.853s0,.007,0,.009a22.366,22.366,0,0,0,21.35,15.8c.15,0,.293-.02.442-.022.04,0,.076.022.116.022.069,0,.132-.033.2-.038A22.34,22.34,0,0,0,46.66,24.33ZM8.467,18.511a15.134,15.134,0,0,0-1.643,2.264A17.9,17.9,0,0,1,24.33,6.466a3.349,3.349,0,1,1,0,6.7H22.1C16.184,13.165,11.6,14.965,8.467,18.511ZM28.952,36.866c-1.927,2.275-5.189,3.872-9.278,4.692a17.967,17.967,0,0,1-11-8.646c-.071-.759-.572-7.259,3.16-11.464a10.081,10.081,0,0,1,2.481-1.954,11.042,11.042,0,0,0-1.148,4.837A11.178,11.178,0,0,0,24.33,35.495a11.057,11.057,0,0,0,6.482-2.112A9.563,9.563,0,0,1,28.952,36.866ZM24.33,31.029a6.7,6.7,0,1,1,0-13.4,7.819,7.819,0,0,0,7.8-7.675,13.543,13.543,0,0,1,6.583,6.572,7.816,7.816,0,0,0-7.686,7.8A6.707,6.707,0,0,1,24.33,31.029Zm7.148,9.662c.308-.3.605-.612.882-.938,2.974-3.51,3.135-8.724,3.135-13.19V24.33a3.349,3.349,0,1,1,6.7,0A17.885,17.885,0,0,1,31.478,40.691Z" transform="translate(-2 -2)"/>
</svg>
