<svg xmlns="http://www.w3.org/2000/svg" width="45.805" height="44.66" viewBox="0 0 45.805 44.66">
  <path id="after-effects-icon" d="M40.267,25.294c-.04.361-.06.63-.078.8a.282.282,0,0,1-.266.248h0c-.115,0-.324.018-.63.04a8.841,8.841,0,0,1-1,.057h-.1c-.439,0-.9-.076-1.393-.076h-6.05a4.159,4.159,0,0,0,.6,1.716l-.011-.018A3.065,3.065,0,0,0,32.709,29.2l.02.008a5.838,5.838,0,0,0,2.335.479c.038,0,.076,0,.115,0h-.006a11.685,11.685,0,0,0,2.057-.222l-.075.012A7.05,7.05,0,0,0,38.9,29.02l-.047.017c.095-.075.153-.038.153.153v2.923a.87.87,0,0,1-.041.232l0-.006a.49.49,0,0,1-.13.133l0,0a7.891,7.891,0,0,1-1.86.566l-.049.008a12.606,12.606,0,0,1-2.435.232c-.1,0-.193,0-.289,0h.014c-.073,0-.159,0-.246,0a9.011,9.011,0,0,1-3.478-.693l.06.021a6.51,6.51,0,0,1-2.4-1.8l-.009-.011a7,7,0,0,1-1.3-2.45l-.012-.05a9.676,9.676,0,0,1-.4-2.785,9.893,9.893,0,0,1,.5-3.108l-.02.07a7.781,7.781,0,0,1,1.442-2.628l-.011.012a6.964,6.964,0,0,1,2.267-1.8l.04-.018a7.106,7.106,0,0,1,2.877-.6c.109,0,.219,0,.326.008h-.015c.047,0,.1,0,.161,0a6.853,6.853,0,0,1,2.84.612l-.043-.017a5.275,5.275,0,0,1,2,1.517l.008.009A6.975,6.975,0,0,1,39.928,21.7l.014.05a7.39,7.39,0,0,1,.361,2.308v.02c0,.457-.018.86-.037,1.222ZM25.282,32.912H21.294l-.026,0a.291.291,0,0,1-.278-.21v0l-1.565-4.581h-7.1l-1.45,4.5a.336.336,0,0,1-.327.269.3.3,0,0,1-.037,0H6.925c-.21,0-.268-.115-.21-.344L12.86,14.931c.057-.191.115-.362.191-.592a6.437,6.437,0,0,0,.115-1.23V13.1h0a.124.124,0,0,1,0-.024.189.189,0,0,1,.153-.185h4.945c.133,0,.229.057.248.153L25.476,32.6c.057.21,0,.307-.191.307ZM38.72,1.4H9.13a8.1,8.1,0,0,0-8.1,8.1v.008h0V37.955a8.1,8.1,0,0,0,8.1,8.1h29.6a8.1,8.1,0,0,0,8.1-8.1v-.008h0V9.5a8.1,8.1,0,0,0-8.1-8.1H38.72ZM33.7,20.752c-.044,0-.1,0-.15,0a2.688,2.688,0,0,0-2.381,1.441l-.008.015a3.89,3.89,0,0,0-.418,1.355l0,.018h4.025c.5,0,.86,0,1.087-.018A.923.923,0,0,0,36.3,23.4l0,0v-.193a2.2,2.2,0,0,0-.121-.72l0,.015a2.524,2.524,0,0,0-2.4-1.757c-.028,0-.054,0-.081,0h0Zm-16.377.554c-.191-.592-.362-1.164-.554-1.756s-.362-1.146-.515-1.7c-.153-.534-.286-1.031-.421-1.488H15.8a23.157,23.157,0,0,1-.7,2.628l.047-.165c-.286.916-.572,1.87-.878,2.825-.248.973-.554,1.87-.84,2.672h4.848c-.115-.4-.268-.878-.439-1.375-.171-.515-.344-1.069-.515-1.641Z" transform="translate(-1.026 -1.399)"/>
</svg>
