<svg id="sass-icon" xmlns="http://www.w3.org/2000/svg" width="44.66" height="44.66" viewBox="0 0 44.66 44.66">
  <rect id="Rectangle_27" data-name="Rectangle 27" width="44.66" height="44.66" fill="none"/>
  <path id="Path_25" data-name="Path 25" d="M22.558,2A20.558,20.558,0,1,1,2,22.558,20.558,20.558,0,0,1,22.558,2M18.446,29.4a5.242,5.242,0,0,1,0,3.084.455.455,0,0,1-.123.349c-.123.144,0,.144-.144.247a5.139,5.139,0,0,1-.946,1.377c-1.192,1.316-2.9,1.809-3.577,1.4s-.349-2.3,1.007-3.762a14.205,14.205,0,0,1,3.618-2.59h0l.164-.1m17-18.5c-.925-3.659-6.99-4.852-12.7-2.816a28.781,28.781,0,0,0-9.765,5.489c-3.145,2.96-3.659,5.53-3.454,6.6.7,3.783,5.921,6.27,8.059,8.1h0c-.617.308-5.222,2.631-6.332,5.016a3.33,3.33,0,0,0,1.028,4.584,6.5,6.5,0,0,0,7.01-2.837,7.072,7.072,0,0,0,.7-6.311,8.922,8.922,0,0,1,3.145-.164c3.618.432,4.317,2.673,4.112,3.618A2.385,2.385,0,0,1,26.114,33.8c-.247.144-.329.206-.308.329s.144.164.349.123a2.8,2.8,0,0,0,2.056-2.508c0-2.22-2.056-4.687-5.777-4.625a9.95,9.95,0,0,0-3.207.452l-.164-.185c-2.323-2.467-6.6-4.112-6.414-7.545,0-1.213.473-4.379,8.223-8.223,6.332-3.166,11.41-2.3,12.335-.349,1.254,2.734-2.714,7.853-9.292,8.593A5.016,5.016,0,0,1,19.8,18.816c-.349-.349-.391-.411-.514-.349s0,.473,0,.678a4.112,4.112,0,0,0,2.364,1.871,12.7,12.7,0,0,0,7.73-.761c3.865-1.562,6.99-5.921,6.065-9.457Z" transform="translate(-0.228 -0.228)"/>
</svg>
