<svg id="Page-1" xmlns="http://www.w3.org/2000/svg" width="44.663" height="44.66" viewBox="0 0 44.663 44.66">
  <g id="Dribbble-Light-Preview">
    <g id="icons">
      <path id="github-_142_" data-name="github-[#142]" d="M106.332,7399c12.334,0,22.332,10.249,22.332,22.89a22.866,22.866,0,0,1-15.259,21.729c-1.132.223-1.534-.493-1.534-1.094,0-.76.027-3.217.027-6.3a5.527,5.527,0,0,0-1.516-4.221c4.973-.582,10.2-2.5,10.2-11.3a8.912,8.912,0,0,0-2.3-6.14,8.448,8.448,0,0,0-.219-6.075s-1.871-.6-6.134,2.343a21,21,0,0,0-11.184,0c-4.268-2.947-6.143-2.343-6.143-2.343a8.481,8.481,0,0,0-.217,6.075,8.943,8.943,0,0,0-2.3,6.14c0,8.776,5.214,10.741,10.174,11.322a4.835,4.835,0,0,0-1.418,3.06c-1.273.58-4.507,1.585-6.5-1.921a4.693,4.693,0,0,0-3.423-2.345s-2.177-.045-.152,1.384a6.088,6.088,0,0,1,2.479,3.351s1.311,4.086,7.524,2.7c.011,1.919.031,3.729.031,4.266,0,.6-.411,1.317-1.525,1.094A22.847,22.847,0,0,1,84,7421.89c0-12.641,10-22.89,22.332-22.89" transform="translate(-84 -7399)" fill-rule="evenodd"/>
    </g>
  </g>
</svg>
