<svg id="responsive-icon" xmlns="http://www.w3.org/2000/svg" width="62.38" height="44.66" viewBox="0 0 62.38 44.66">
  <g id="Layer_69_5_">
    <g id="Group_68" data-name="Group 68">
      <path id="Path_21" data-name="Path 21" d="M62.38,46.664V6.7H0V46.664H25.461v2.572H12.151v2.123H49.418V49.236H36.4V46.664ZM4.563,40.78V11.262H57.816V40.776H4.563Z" transform="translate(0 -6.699)"/>
      <path id="Path_22" data-name="Path 22" d="M19.573,25.379h-8.3L8.818,25.5v1.692h16.2V25.379H19.573Zm2.658,1.115H17.112v-.339h5.119Z" transform="translate(5.279 -0.148)"/>
      <path id="Path_23" data-name="Path 23" d="M12.872,13.356H27.394v.416h1.28v-1.7H11.592V23.341h13.74v-1.28H12.872Z" transform="translate(7.235 -3.548)"/>
      <path id="Path_24" data-name="Path 24" d="M27.907,28.105H36.8V14.764H27.907Zm4.634-.67a.428.428,0,1,1,.429-.427A.427.427,0,0,1,32.541,27.435ZM29.192,16.05h6.324v9.844H29.192Z" transform="translate(12.292 -1.266)"/>
    </g>
  </g>
</svg>
