<svg xmlns="http://www.w3.org/2000/svg" width="45.807" height="44.66" viewBox="0 0 45.807 44.66">
  <path id="photoshop-icon" d="M18.8,15.8a5.6,5.6,0,0,0-2.252-.382c-.5,0-.935,0-1.3.019a4.37,4.37,0,0,0-.783.019v6.413c.267.019.515.038.744.038h1.012a7.129,7.129,0,0,0,2.195-.344,3.282,3.282,0,0,0,1.565-1.012,2.949,2.949,0,0,0,.592-1.966,3.141,3.141,0,0,0-.439-1.7A2.768,2.768,0,0,0,18.8,15.8ZM37.7.3H8.112A8.1,8.1,0,0,0,0,8.412V36.848A8.1,8.1,0,0,0,8.112,44.96H37.7a8.1,8.1,0,0,0,8.112-8.112V8.412A8.1,8.1,0,0,0,37.7.3ZM23.589,22.535a6.525,6.525,0,0,1-3.071,2.329,12.37,12.37,0,0,1-4.294.649c-.458,0-.763,0-.954-.019s-.458-.019-.821-.019V31.6a.239.239,0,0,1-.21.269h-3.7c-.153,0-.229-.078-.229-.25V11.981c0-.134.057-.21.191-.21.324,0,.63,0,1.069-.019.458-.019.935-.019,1.451-.038s1.069-.019,1.661-.038,1.164-.019,1.737-.019a11.223,11.223,0,0,1,3.932.592A6.816,6.816,0,0,1,22.9,13.813,6.077,6.077,0,0,1,24.3,15.989a7.35,7.35,0,0,1,.437,2.481,6.8,6.8,0,0,1-1.145,4.065ZM37.123,29.96a4.823,4.823,0,0,1-2.138,1.7,8.786,8.786,0,0,1-3.457.607,13.126,13.126,0,0,1-2.594-.246,7.777,7.777,0,0,1-1.947-.611.373.373,0,0,1-.212-.361V27.729a.211.211,0,0,1,.078-.172.146.146,0,0,1,.172.019,8.117,8.117,0,0,0,2.367.935,8.864,8.864,0,0,0,2.252.286,3.638,3.638,0,0,0,1.584-.269.887.887,0,0,0,.515-.8,1.008,1.008,0,0,0-.458-.763,8.3,8.3,0,0,0-1.869-.9,11.785,11.785,0,0,1-2.71-1.372,5.01,5.01,0,0,1-1.452-1.622,4.119,4.119,0,0,1-.437-1.949,4.473,4.473,0,0,1,.651-2.309,4.7,4.7,0,0,1,2-1.756,7.413,7.413,0,0,1,3.376-.666,16.454,16.454,0,0,1,2.367.172A6.716,6.716,0,0,1,36.856,17a.341.341,0,0,1,.191.172.958.958,0,0,1,.038.229v3.111a.235.235,0,0,1-.1.191.509.509,0,0,1-.344,0,6.755,6.755,0,0,0-1.832-.649,10.061,10.061,0,0,0-2.138-.248,3.863,3.863,0,0,0-1.147.134.986.986,0,0,0-.592.382,1.012,1.012,0,0,0-.153.515.839.839,0,0,0,.193.5,2.131,2.131,0,0,0,.649.515c.437.229.9.439,1.353.63a13.8,13.8,0,0,1,2.941,1.393,4.4,4.4,0,0,1,1.506,1.584,4.108,4.108,0,0,1,.439,1.964,4.431,4.431,0,0,1-.742,2.54Z" transform="translate(0 -0.3)"/>
</svg>
