<svg xmlns="http://www.w3.org/2000/svg" width="45.805" height="44.66" viewBox="0 0 45.805 44.66">
  <path id="premierepro-icon" d="M19.372,15.8a5.592,5.592,0,0,0-2.252-.382q-1.041-.022-2.08.038v6.413l.744.038H16.8a7.129,7.129,0,0,0,2.195-.344,3.282,3.282,0,0,0,1.565-1.012,2.949,2.949,0,0,0,.592-1.966A2.767,2.767,0,0,0,19.372,15.8ZM37.694.3H8.111A8.111,8.111,0,0,0,0,8.411V36.849A8.1,8.1,0,0,0,8.111,44.96H37.694a8.1,8.1,0,0,0,8.111-8.111V8.411A8.1,8.1,0,0,0,37.694.3ZM24.162,22.535a6.539,6.539,0,0,1-3.073,2.328,12.369,12.369,0,0,1-4.294.649l-.954-.019-.821-.019V31.6a.229.229,0,0,1-.21.267h-3.7c-.153,0-.229-.076-.229-.248V11.98c0-.134.057-.21.191-.21l1.069-.019,1.45-.038,1.66-.038,1.737-.019a11.222,11.222,0,0,1,3.932.592,6.815,6.815,0,0,1,2.557,1.565,6.077,6.077,0,0,1,1.393,2.176,7.3,7.3,0,0,1,.439,2.481,6.823,6.823,0,0,1-1.145,4.065Zm13.016-6.012v3.722c0,.153-.1.21-.305.21a8.3,8.3,0,0,0-3.664.706,2.967,2.967,0,0,0-.973.706V31.6c0,.191-.076.267-.248.267h-3.76a.267.267,0,0,1-.305-.229V20.989L27.9,19.557l-.038-1.489c0-.439-.038-.859-.076-1.3a.191.191,0,0,1,.134-.21h3.4a.39.39,0,0,1,.382.305,5.783,5.783,0,0,1,.248,1.756,7.184,7.184,0,0,1,2.061-1.641,5.917,5.917,0,0,1,2.9-.744.237.237,0,0,1,.267.21v.076Z" transform="translate(0 -0.3)"/>
</svg>
