<svg xmlns="http://www.w3.org/2000/svg" width="249.197" height="174.105" viewBox="0 0 249.197 174.105">
  <g id="Icon_feather-arrow-right" data-name="Icon feather-arrow-right" transform="translate(-6 -6)">
    <path id="Path_793" data-name="Path 793" d="M245.362,30.243H15.835C10.4,30.243,6,27.167,6,23.372S10.4,16.5,15.835,16.5H245.362c5.432,0,9.835,3.076,9.835,6.872S250.794,30.243,245.362,30.243Z" transform="translate(0 69.681)"/>
    <path id="Path_794" data-name="Path 794" d="M23.372,180.1a6.872,6.872,0,0,1-4.859-11.73L93.834,93.052,18.513,17.73a6.872,6.872,0,0,1,9.718-9.718l80.181,80.181a6.872,6.872,0,0,1,0,9.718L28.231,178.092A6.85,6.85,0,0,1,23.372,180.1Z" transform="translate(144.773 0)"/>
  </g>
</svg>
