<svg xmlns="http://www.w3.org/2000/svg" width="96.725" height="149.752" viewBox="0 0 96.725 149.752">
  <g id="Group_547" data-name="Group 547" transform="matrix(0.966, -0.259, 0.259, 0.966, -7.225, 17.769)">
    <path id="bulb" d="M44.073.865C25.135-3.527,5.938,9.244,1.277,29.328c-3.415,14.7.708,24.319,4.325,32.8,2.718,6.346,5.066,11.817,3.538,18.41L6.107,93.624a9.861,9.861,0,0,0,7.1,11.963l12.491,2.9a9.839,9.839,0,0,0,11.637-7.616l3.078-13.277c1.516-6.526,5.74-10.087,11.087-14.6,6.672-5.628,14.973-12.626,18.478-27.734,4.662-20.084-6.964-40-25.891-44.392h0ZM27.146,102.229l-12.491-2.9a3.45,3.45,0,0,1-2.3-4.268l2.37-10.2L33.458,89.21l-2.37,10.2a3.448,3.448,0,0,1-3.943,2.819ZM47.364,68.081C42.557,72.136,37.626,76.3,35.11,83.01L15.924,78.561c.651-7.1-1.921-13.131-4.414-18.972-3.4-7.953-6.919-16.164-3.976-28.823C11.4,14.119,27.145,3.516,42.635,7.1s24.959,20.062,21.1,36.7C60.709,56.815,53.924,62.544,47.364,68.07h0Z" transform="translate(0 27.913)" fill="#ffaaf5"/>
    <line id="bulb-line-3" y1="12.963" x2="15.984" transform="translate(68.965 17.175)" fill="none" stroke="#ffaaf5" stroke-linecap="round" stroke-miterlimit="10" stroke-width="5"/>
    <line id="bulb-line-2" x1="9.346" y1="18.332" transform="translate(16.879 1.898)" fill="none" stroke="#ffaaf5" stroke-linecap="round" stroke-miterlimit="10" stroke-width="5"/>
    <line id="bulb-line-1" y1="20.05" x2="4.931" transform="translate(49.409 0)" fill="none" stroke="#ffaaf5" stroke-linecap="round" stroke-miterlimit="10" stroke-width="5"/>
  </g>
</svg>
