<svg xmlns="http://www.w3.org/2000/svg" width="264" height="522.496" viewBox="0 0 264 522.496">
  <g id="Group_582" data-name="Group 582" transform="translate(-121 -2238.72)">
    <g id="Group_500" data-name="Group 500" transform="translate(-152.007 959.795)">
      <g id="Group_439" data-name="Group 439" transform="translate(273.007 1278.925)">
        <g id="Benefit_1" data-name="Benefit 1" transform="translate(0)">
          <path id="heart_beat" data-name="heart beat" d="M24.951,18.754,21.078,26.5a1.246,1.246,0,0,1-2.252-.047l-4.434-9.842L12.055,22.2H4.722L18.943,36.731a1.388,1.388,0,0,0,2,0L35.174,22.2h-8.5ZM36.912,5.515l-.187-.195a10.208,10.208,0,0,0-14.6,0L19.948,7.549,17.774,5.328a10.194,10.194,0,0,0-14.6,0l-.187.187A10.7,10.7,0,0,0,2.416,19.7h7.979l2.8-6.717a1.249,1.249,0,0,1,2.291-.031l4.535,10.075L23.837,15.4a1.245,1.245,0,0,1,2.229,0l2.151,4.3h9.265a10.7,10.7,0,0,0-.569-14.19Z" transform="translate(112.188 -2.246)" fill="#f25cad"/>
          <g id="health_benefit_1" data-name="health benefit 1" transform="translate(0 57.098)">
            <text id="_80_less_sugar_" data-name="80% less sugar " transform="translate(59.649 31.766)" fill="#f25cad" font-size="15" font-family="Poppins-SemiBold, Poppins" font-weight="600"><tspan x="0" y="0">80% less sugar </tspan></text>
            <g id="Rectangle_27" data-name="Rectangle 27" fill="none" stroke="#f25cad" stroke-width="3">
              <rect width="264" height="60.797" stroke="none"/>
              <rect x="1.5" y="1.5" width="261" height="57.797" fill="none"/>
            </g>
            <text id="Our_drink_contains_80_less_sugar_than_most_leading_brands_making_it_a_healthier_option_for_those_who_want_to_enjoy_a_delicious_refreshing_healthy_drink_" data-name="Our drink contains 80% less sugar than most leading brands, making it a healthier option for those who want to enjoy a delicious, refreshing, healthy drink!" transform="translate(27.78 60.797)" fill="#f25cad" font-size="10" font-family="Poppins-SemiBold, Poppins" font-weight="600" opacity="0"><tspan x="0" y="11">Our drink contains 80% less sugar than </tspan><tspan x="0" y="27">most leading brands, making it a </tspan><tspan x="0" y="43">healthier option for those who want to </tspan><tspan x="0" y="59">enjoy a delicious, refreshing, healthy </tspan><tspan x="0" y="75">drink!</tspan></text>
          </g>
        </g>
      </g>
      <g id="Benefit_2" data-name="Benefit 2" transform="translate(273.007 1432.958)">
        <g id="health_benefit_2" data-name="health benefit 2" transform="translate(0 60.488)">
          <text id="_100_fruit" data-name="100%  fruit" transform="translate(85.071 30.788)" fill="#f25cad" font-size="15" font-family="Poppins-SemiBold, Poppins" font-weight="600"><tspan x="0" y="0" xml:space="preserve">100%  fruit</tspan></text>
          <g id="Rectangle_27-2" data-name="Rectangle 27" fill="none" stroke="#f25cad" stroke-width="3">
            <rect width="264" height="60.797" stroke="none"/>
            <rect x="1.5" y="1.5" width="261" height="57.797" fill="none"/>
          </g>
          <text id="Our_drink_contains_80_less_sugar_than_most_leading_brands_making_it_a_healthier_option_for_those_who_want_to_enjoy_a_delicious_refreshing_healthy_drink_2" data-name="Our drink contains 80% less sugar than most leading brands, making it a healthier option for those who want to enjoy a delicious, refreshing, healthy drink!" transform="translate(28.076 60.797)" fill="#f25cad" font-size="10" font-family="Poppins-SemiBold, Poppins" font-weight="600" opacity="0"><tspan x="0" y="11">Our drink contains 80% less sugar than </tspan><tspan x="0" y="27">most leading brands, making it a </tspan><tspan x="0" y="43">healthier option for those who want to </tspan><tspan x="0" y="59">enjoy a delicious, refreshing, healthy </tspan><tspan x="0" y="75">drink!</tspan></text>
        </g>
        <path id="health_sign" data-name="health sign" d="M39.02,13.487a.8.8,0,0,0-.8-.8H27.849a.8.8,0,0,1-.8-.8V1.518a.8.8,0,0,0-.8-.8H13.487a.8.8,0,0,0-.8.8V11.891a.8.8,0,0,1-.8.8H1.518a.8.8,0,0,0-.8.8V26.254a.8.8,0,0,0,.8.8H11.891a.8.8,0,0,1,.8.8V38.222a.8.8,0,0,0,.8.8H26.254a.8.8,0,0,0,.8-.8V27.849a.8.8,0,0,1,.8-.8H38.222a.8.8,0,0,0,.8-.8Z" transform="translate(112.809 -0.72)" fill="#f25cad"/>
      </g>
      <g id="Benefit_3" data-name="Benefit 3" transform="translate(273.007 1607.585)">
        <g id="health_benefit_3" data-name="health benefit 3" transform="translate(0 54.039)">
          <text id="Same_Fruity_Taste" data-name="Same Fruity Taste" transform="translate(48.114 30.664)" fill="#f25cad" font-size="15" font-family="Poppins-SemiBold, Poppins" font-weight="600"><tspan x="0" y="0">Same Fruity Taste</tspan></text>
          <g id="Rectangle_27-3" data-name="Rectangle 27" fill="none" stroke="#f25cad" stroke-width="3">
            <rect width="264" height="60.797" stroke="none"/>
            <rect x="1.5" y="1.5" width="261" height="57.797" fill="none"/>
          </g>
          <text id="Our_drink_contains_80_less_sugar_than_most_leading_brands_making_it_a_healthier_option_for_those_who_want_to_enjoy_a_delicious_refreshing_healthy_drink_3" data-name="Our drink contains 80% less sugar than most leading brands, making it a healthier option for those who want to enjoy a delicious, refreshing, healthy drink!" transform="translate(28.094 60.797)" fill="#f25cad" font-size="10" font-family="Poppins-SemiBold, Poppins" font-weight="600" opacity="0"><tspan x="0" y="11">Our drink contains 80% less sugar than </tspan><tspan x="0" y="27">most leading brands, making it a </tspan><tspan x="0" y="43">healthier option for those who want to </tspan><tspan x="0" y="59">enjoy a delicious, refreshing, healthy </tspan><tspan x="0" y="75">drink!</tspan></text>
        </g>
        <path id="grinning_heart_sign" data-name="grinning heart sign" d="M19.325.562A19.325,19.325,0,1,0,38.649,19.887,19.321,19.321,0,0,0,19.325.562ZM7.044,14.246a2.943,2.943,0,0,1,3.5-1.706l.553.148.156-.553A2.95,2.95,0,0,1,14.486,9.96a2.757,2.757,0,0,1,2.244,3.468l-1.512,5.447a.669.669,0,0,1-.818.468L8.93,17.924a2.765,2.765,0,0,1-1.886-3.678ZM19.325,33.6c-4.722,0-10.481-2.984-11.205-7.27a1.249,1.249,0,0,1,1.613-1.395,33.681,33.681,0,0,0,9.592,1.184,33.681,33.681,0,0,0,9.592-1.184,1.253,1.253,0,0,1,1.613,1.395C29.805,30.617,24.047,33.6,19.325,33.6ZM29.72,17.916l-5.47,1.418a.677.677,0,0,1-.818-.468L21.92,13.42a2.757,2.757,0,0,1,2.244-3.468A2.959,2.959,0,0,1,27.4,12.126l.156.553.553-.148a2.95,2.95,0,0,1,3.5,1.706,2.76,2.76,0,0,1-1.886,3.678Z" transform="translate(112.675 -0.562)" fill="#f25cad"/>
      </g>
    </g>
  </g>
</svg>
