<svg xmlns="http://www.w3.org/2000/svg" width="860" height="140" viewBox="0 0 860 140">
  <g id="Group_608" data-name="Group 608" transform="translate(-170 -3677.194)">
    <g id="Group_591" data-name="Group 591" transform="translate(0 -204)">
      <g id="Group_587" data-name="Group 587">
        <ellipse id="Ellipse_114" data-name="Ellipse 114" cx="51.5" cy="51" rx="51.5" ry="51" transform="translate(170 3881.194)" fill="#a787be"/>
        <circle id="Ellipse_115" data-name="Ellipse 115" cx="51" cy="51" r="51" transform="translate(321 3881.194)" fill="#f25cad"/>
        <ellipse id="Ellipse_116" data-name="Ellipse 116" cx="50.5" cy="51" rx="50.5" ry="51" transform="translate(474 3881.194)" fill="#e82147"/>
        <ellipse id="Ellipse_117" data-name="Ellipse 117" cx="50.5" cy="51" rx="50.5" ry="51" transform="translate(625 3881.194)" fill="#f7931e"/>
        <ellipse id="Ellipse_118" data-name="Ellipse 118" cx="52" cy="51" rx="52" ry="51" transform="translate(775 3881.194)" fill="#6ebe43"/>
        <ellipse id="Ellipse_119" data-name="Ellipse 119" cx="51.5" cy="51" rx="51.5" ry="51" transform="translate(927 3881.194)" fill="#f4a8d1"/>
        <text id="_F25CAD" data-name="#F25CAD" transform="translate(370 4018.194)" fill="#5f96fe" font-size="16" font-family="Korolev-Medium, Korolev" font-weight="500"><tspan x="-31.968" y="0">#F25CAD</tspan></text>
        <text id="_A787BE" data-name="#A787BE" transform="translate(220 4018.194)" fill="#5f96fe" font-size="16" font-family="Korolev-Medium, Korolev" font-weight="500"><tspan x="-30.6" y="0">#A787BE</tspan></text>
        <text id="_E82147" data-name="#E82147" transform="translate(522 4018.194)" fill="#5f96fe" font-size="16" font-family="Korolev-Medium, Korolev" font-weight="500"><tspan x="-29.144" y="0">#E82147</tspan></text>
        <text id="_F7931E" data-name="#F7931E" transform="translate(672 4018.194)" fill="#5f96fe" font-size="16" font-family="Korolev-Medium, Korolev" font-weight="500"><tspan x="-28.32" y="0">#F7931E</tspan></text>
        <text id="_6EBE43" data-name="#6EBE43" transform="translate(824 4018.194)" fill="#5f96fe" font-size="16" font-family="Korolev-Medium, Korolev" font-weight="500"><tspan x="-31.664" y="0">#6EBE43</tspan></text>
      </g>
    </g>
    <text id="_F4A8D1" data-name="#F4A8D1" transform="translate(975 3814.194)" fill="#5f96fe" font-size="16" font-family="Korolev-Medium, Korolev" font-weight="500"><tspan x="-30.08" y="0">#F4A8D1</tspan></text>
  </g>
</svg>
