<svg xmlns="http://www.w3.org/2000/svg" width="120.033" height="334.031" viewBox="0 0 120.033 334.031">
  <g id="tulip-4" transform="translate(0.52 0.52)">
    <g id="stem" transform="translate(12.806 90.633)">
      <path id="Path_8" data-name="Path 8" d="M74.416,432.26a47.179,47.179,0,0,1-2.05-39.632c4.975-12.137,14.749-21.515,23.311-31.448s16.445-21.745,16.244-34.858c-.189-12.291-7.705-23.595-17.5-31.023s-21.669-11.535-33.493-14.885c-10.24-2.9-22.041-6.518-26.041-16.386-3.811-9.407,1.69-20.239,9.26-27s17.083-11,24.871-17.5,13.963-16.758,11.121-26.5l-9.171,1.111c-3.386,8.793-10.37,15.677-17.633,21.674s-15.086,11.47-21.1,18.726-10.087,16.823-8.22,26.059c2.115,10.471,11.31,18.147,21.048,22.537s20.4,6.364,30.249,10.506,19.346,11.251,22.254,21.527c2.854,10.093-1.306,20.942-7.321,29.534S76.39,360.471,70.428,369.1a70.7,70.7,0,0,0-7.422,65.035l11.422-1.867Z" transform="translate(-22.742 -192.124)" fill="#a9f279"/>
      <path id="Path_9" data-name="Path 9" d="M74.613,431.2a46.455,46.455,0,0,1-4.243-31.678c2.387-10.678,8.858-19.518,15.9-27.637,7.061-8.137,14.737-15.866,20.049-25.338,5-8.917,7.469-19.122,4.7-29.173s-9.177-17.816-17.059-23.713c-8.816-6.589-19.281-10.542-29.746-13.668-8.615-2.576-18.584-4.52-25.19-11.121a16.919,16.919,0,0,1-5.064-12.439c.118-4.71,2.175-9.514,4.922-13.449,6.352-9.094,16.876-13.8,25.693-20.032,7.983-5.637,15.559-13.638,16.486-23.849a19.267,19.267,0,0,0-.656-6.943.892.892,0,0,0-.857-.65q-4.582.558-9.171,1.111a.955.955,0,0,0-.857.65c-7.965,20.309-31.785,27.507-42.575,45.76-4.993,8.45-6.719,18.732-2.033,27.7,4.32,8.261,12.557,13.821,20.948,17.337,10.347,4.337,21.621,6.21,31.7,11.215,8.261,4.1,16.2,10.613,18.655,19.878,2.765,10.418-2.056,21.2-8.09,29.51-6.435,8.87-14.684,16.3-20.558,25.6a71.916,71.916,0,0,0-8.332,56.538,68.065,68.065,0,0,0,2.31,6.931.925.925,0,0,0,1.093.62q5.708-.931,11.422-1.867c1.123-.183.644-1.891-.473-1.708q-5.708.931-11.422,1.867l1.093.62a70.135,70.135,0,0,1,3.25-57.613c5.064-9.608,12.775-17.172,19.583-25.5,6.447-7.883,12.167-17.119,12.651-27.578.449-9.649-4.585-17.946-12.037-23.719-8.267-6.4-18.359-9.254-28.2-12.273-9.72-2.984-19.606-6.459-26.922-13.845a26.358,26.358,0,0,1-7.073-11.978,25.5,25.5,0,0,1,1.117-14.914c3.723-10.193,12.078-17.509,20.315-24.1,7.995-6.4,16.415-12.693,21.976-21.468a38.2,38.2,0,0,0,3.3-6.547l-.857.65q4.582-.558,9.171-1.111l-.857-.65c2.89,10.305-4.172,20.3-11.859,26.431-8.533,6.807-19.1,11.145-26.538,19.323-6.216,6.837-10.548,16.894-6.571,25.923,3.61,8.19,12.509,12.025,20.51,14.589,4.881,1.566,9.845,2.825,14.708,4.438a100.236,100.236,0,0,1,15.635,6.518c9.236,4.916,17.432,11.966,22.183,21.432A33.5,33.5,0,0,1,110.44,325.7a36.855,36.855,0,0,1-3.492,15.647c-4.52,10.01-12.031,18.1-19.252,26.213-7.061,7.93-14.093,16.291-17.633,26.467a48.2,48.2,0,0,0-.112,30.851,47.7,47.7,0,0,0,3.108,7.209c.538,1.01,2.068.112,1.53-.892Z" transform="translate(-22.171 -191.503)" fill="#a9f279"/>
    </g>
    <path id="petal-1" d="M89,12.334S77.251-2.167,66.018,1.266a38.052,38.052,0,0,0-9.159,3.811A3.765,3.765,0,0,0,55.4,9.639l6.884,17.4a3.779,3.779,0,0,0,4.562,2.245c6.264-1.814,19.258-5.809,19.547-7.83.378-2.665,3.3-8.143,2.606-9.118Z" transform="translate(-22.851 -0.587)" fill="#84aeff" stroke="#84aeff" stroke-miterlimit="10" stroke-width="1"/>
    <path id="petal-2" d="M153.254,25.724S146.89,4.392,139.132,3.057a20.215,20.215,0,0,0-5.673-.408,3.551,3.551,0,0,1-2.783-.768c-1.448-1.188-4.385-2.24-10.146-.414-7.038,2.228-11.718,11.085-13.8,15.937a3.561,3.561,0,0,0,1.749,4.639c8.361,3.935,31.6,14.779,35.827,15.872,5.17,1.335,5.3,3.912,9.614-11.375" transform="translate(-43.835 -0.482)" fill="#84aeff" stroke="#84aeff" stroke-miterlimit="10" stroke-width="1"/>
    <path id="petal-3" d="M48.23,54.263,64.882,28.9S49.6,10.394,44.454,10.961s-3.238,3.811-3.238,3.811-2.541-2.24-3.557,1.737-1.59,19.216-1.016,20.546,4.19,16.758,4.19,16.758,5.46,2.222,7.4.443Z" transform="translate(-15.192 -4.764)" fill="#84aeff" stroke="#84aeff" stroke-miterlimit="10" stroke-width="1"/>
    <path id="petal-4" d="M63.236,78.928a11.442,11.442,0,0,1,3.935,6.429c2.37,11.109,8.237,37.723,10.1,37.723,2.346,0,15.369,6.015,21.137-2.606s9.4-25.864,9.4-33.883c0-6.234,10.317-27.353,14.914-36.459a11,11,0,0,0,.177-9.638A38.957,38.957,0,0,0,97.615,18.987a12.943,12.943,0,0,0-8.267.39,23.592,23.592,0,0,1-12.5,1.058C66.6,18.833,43.116,45.294,44.186,52.911c.875,6.228,13.029,21.042,19.063,26.012Z" transform="translate(-18.356 -7.849)" fill="#84aeff" stroke="#84aeff" stroke-miterlimit="10" stroke-width="1"/>
    <path id="petal-5" d="M122.983,127.769s9.354-2.34,14.17-8.355,22.478-31.8,25.687-53.507,5.767-37.783-.071-42.226c-4.426-3.368-12.155,19.854-15.641,31.3a69.516,69.516,0,0,1-5.1,12.332l-5.921,11.144A68.665,68.665,0,0,0,129.288,97.7c-2.216,11.493-6.571,29.344-12.208,29.144l8.308.3" transform="translate(-47.239 -9.837)" fill="#84aeff" stroke="#84aeff" stroke-miterlimit="10" stroke-width="1"/>
    <path id="petal-6" d="M55.471,136.142c-18.554-5.5-16.4-.437-39.029-33.705L15.7,101.2C13.281,96.658-.83,69.559.6,59.7a1.591,1.591,0,0,0,.018-.236c-.041-1.625-.225-19.784,11.239-13.6,9.224,4.975,12.817,8.379,13.815,13.319a13.123,13.123,0,0,0,5.637,8.361c8.084,5.342,22.679,15.913,24.729,23.837,0,0,2.287,7.05,4.952,10.477,2.446,3.144,2.647,24.576,2.665,28.086v.012a1.375,1.375,0,0,0,.721,1.152c1.991,1.146,11.31,5.537,19.612-7.067,9.354-14.205,10.418,23.648-28.523,12.108Z" transform="translate(-0.498 -18.523)" fill="#84aeff" stroke="#84aeff" stroke-miterlimit="10" stroke-width="1"/>
    <g id="layout-symbol" transform="translate(36.903 32.954)">
      <rect id="Rectangle_20" data-name="Rectangle 20" width="59.203" height="59.203" rx="7.17" fill="#fff" stroke="#5c9bff" stroke-miterlimit="10" stroke-width="2"/>
      <rect id="Rectangle_21" data-name="Rectangle 21" width="54.452" height="4.385" transform="translate(2.417 2.375)" fill="#84aeff" stroke="#84aeff" stroke-miterlimit="10" stroke-width="1"/>
      <rect id="Rectangle_22" data-name="Rectangle 22" width="22.289" height="22.289" transform="translate(2.328 10.051)" fill="#c4daf2" stroke="#c4daf2" stroke-miterlimit="10" stroke-width="1"/>
      <rect id="Rectangle_23" data-name="Rectangle 23" width="28.872" height="36.908" transform="translate(27.909 10.051)" fill="#c4daf2" stroke="#c4daf2" stroke-miterlimit="10" stroke-width="1"/>
      <rect id="Rectangle_24" data-name="Rectangle 24" width="22.289" height="12.06" transform="translate(2.328 36.358)" fill="#ffccfe" stroke="#ffccfe" stroke-miterlimit="10" stroke-width="1"/>
      <rect id="Rectangle_25" data-name="Rectangle 25" width="54.452" height="4.385" transform="translate(2.328 52.443)" fill="#84aeff" stroke="#84aeff" stroke-miterlimit="10" stroke-width="1"/>
    </g>
  </g>
</svg>
