<svg xmlns="http://www.w3.org/2000/svg" width="120.027" height="334.031" viewBox="0 0 120.027 334.031">
  <g id="tulip-1" transform="translate(0.496 0.52)">
    <g id="stem" transform="translate(16.132 90.639)">
      <path id="Path_4" data-name="Path 4" d="M66.812,432.26a47.179,47.179,0,0,0,2.05-39.632c-4.975-12.137-14.749-21.515-23.311-31.448s-16.445-21.745-16.244-34.858c.189-12.291,7.705-23.595,17.5-31.023S68.473,283.766,80.3,280.415c10.24-2.9,22.041-6.518,26.041-16.386,3.811-9.407-1.69-20.239-9.259-27s-17.083-11-24.871-17.5-13.963-16.758-11.121-26.5l9.171,1.111c3.386,8.793,10.37,15.677,17.633,21.674s15.086,11.47,21.1,18.726,10.087,16.823,8.22,26.059c-2.115,10.471-11.31,18.147-21.048,22.537s-20.4,6.364-30.249,10.506S46.562,304.885,43.655,315.16c-2.854,10.093,1.306,20.942,7.321,29.534S64.839,360.471,70.8,369.1a70.7,70.7,0,0,1,7.422,65.035L66.8,432.272Z" transform="translate(-28.42 -192.135)" fill="#a9f279"/>
      <path id="Path_5" data-name="Path 5" d="M66.969,432.1a48.439,48.439,0,0,0,4.887-30.68c-1.814-10.7-7.611-19.789-14.442-27.991-12.87-15.452-32.707-32.689-26.768-55.22,2.63-9.992,9.667-18.424,18.04-24.233,9.218-6.4,19.943-10.093,30.644-13.148,8.255-2.358,17.6-4.8,23.607-11.381a18.608,18.608,0,0,0,4.922-11.942,25.07,25.07,0,0,0-3.935-13.514c-5.6-9.3-15.281-14.465-24.1-20.221-8.509-5.555-17.314-12.964-18.944-23.63a17.823,17.823,0,0,1,.467-7.493l-.857.65q4.582.558,9.171,1.111l-.857-.65c3.758,9.585,11.334,16.776,19.169,23.134,8.249,6.689,17.337,13.024,23.057,22.189a32,32,0,0,1,5.094,14.637,23.14,23.14,0,0,1-3.41,13.668c-5.165,8.444-14.318,13.431-23.37,16.675-10.122,3.634-20.918,5.732-30.361,11.079-7.853,4.45-15,11.263-17.077,20.345-2.281,9.945,1.708,20.227,7.25,28.381,6.2,9.124,14.554,16.557,20.717,25.71a70.041,70.041,0,0,1,9.206,56.786,66.634,66.634,0,0,1-2.31,6.931l1.093-.62q-5.708-.931-11.422-1.867c-1.117-.183-1.6,1.525-.473,1.708q5.708.931,11.422,1.867a.926.926,0,0,0,1.093-.62,71.874,71.874,0,0,0-2.47-57.093c-4.7-9.65-12-17.331-18.885-25.427-6.866-8.066-13.473-17.485-14.058-28.44a24.278,24.278,0,0,1,3.646-14.259,33.784,33.784,0,0,1,9.75-9.756c8.952-6.1,19.624-8.485,29.776-11.8,9.325-3.043,18.649-7.185,25.155-14.808a26.905,26.905,0,0,0,6.033-11.789,27.29,27.29,0,0,0-1.188-14.607c-7.3-20.747-30.6-28.18-42.179-45.707a36.534,36.534,0,0,1-3.551-6.784.947.947,0,0,0-.857-.65q-4.582-.558-9.171-1.111a.9.9,0,0,0-.857.65c-2.748,9.8,2.872,19.642,9.927,26.118,8.06,7.4,18.489,11.611,26.567,18.992,6.99,6.388,12.9,17.16,8.45,26.591-3.888,8.237-13.42,11.6-21.544,14.034-10.382,3.114-20.812,6.021-30.3,11.428-8.781,5-16.539,12.084-21.072,21.225a35.834,35.834,0,0,0-3.8,14.016,36.763,36.763,0,0,0,2.677,15.257c3.888,9.9,10.82,18.094,17.822,25.935,7.227,8.09,14.867,16.3,19.045,26.479a46.041,46.041,0,0,1,1.152,31.59,44.744,44.744,0,0,1-3.114,7.357c-.532,1,.993,1.9,1.53.892Z" transform="translate(-27.808 -191.523)" fill="#a9f279"/>
    </g>
    <path id="petal-1" d="M89.892,12.334s11.741-14.5,22.98-11.068a38.052,38.052,0,0,1,9.159,3.811,3.765,3.765,0,0,1,1.454,4.562l-6.884,17.4a3.779,3.779,0,0,1-4.562,2.245c-6.264-1.814-19.258-5.809-19.547-7.83-.378-2.665-3.3-8.143-2.606-9.118Z" transform="translate(-37.028 -0.593)" fill="#ffccfe" stroke="#ffccfe" stroke-miterlimit="10" stroke-width="1"/>
    <path id="petal-2" d="M16.278,25.728S22.642,4.4,30.394,3.067a20.215,20.215,0,0,1,5.673-.408,3.55,3.55,0,0,0,2.783-.768C40.3.7,43.235-.348,49,1.477c7.038,2.228,11.718,11.085,13.8,15.937a3.561,3.561,0,0,1-1.749,4.639c-8.361,3.935-31.6,14.779-35.827,15.872-5.17,1.335-5.3,3.912-9.614-11.375" transform="translate(-6.686 -0.492)" fill="#ffccfe" stroke="#ffccfe" stroke-miterlimit="10" stroke-width="1"/>
    <path id="petal-3" d="M134.472,54.267,117.82,28.9s15.293-18.5,20.434-17.928,3.238,3.811,3.238,3.811,2.541-2.24,3.557,1.737,1.59,19.216,1.016,20.546-4.19,16.758-4.19,16.758-5.46,2.222-7.4.443Z" transform="translate(-48.499 -4.773)" fill="#ffccfe" stroke="#ffccfe" stroke-miterlimit="10" stroke-width="1"/>
    <path id="petal-4" d="M82.948,72.442a11.779,11.779,0,0,0-3.935,6.59c-2.37,11.387-8.237,38.669-10.1,38.669-2.346,0-15.369,6.166-21.137-2.671s-9.4-26.512-9.4-34.731c0-6.39-10.317-28.038-14.914-37.372a11.525,11.525,0,0,1-.177-9.879A39.3,39.3,0,0,1,48.569,11a12.646,12.646,0,0,1,8.267.4,23.054,23.054,0,0,0,12.5,1.084C79.58,10.842,103.068,37.965,102,45.773c-.875,6.384-13.029,21.569-19.063,26.663Z" transform="translate(-9.408 -4.582)" fill="#ffccfe" stroke="#ffccfe" stroke-miterlimit="10" stroke-width="1"/>
    <path id="petal-5" d="M43.775,127.774s-9.354-2.34-14.17-8.355-22.478-31.8-25.681-53.5S-1.843,28.135,4,23.691c4.426-3.368,12.155,19.854,15.641,31.3a69.517,69.517,0,0,0,5.1,12.332l5.921,11.145a68.665,68.665,0,0,1,6.819,19.246c2.216,11.493,6.571,29.344,12.208,29.144l-8.308.3" transform="translate(-0.507 -9.847)" fill="#ffccfe" stroke="#ffccfe" stroke-miterlimit="10" stroke-width="1"/>
    <path id="petal-6" d="M85.385,136.142c18.554-5.5,16.4-.437,39.029-33.705.248-.408.5-.821.745-1.235,2.417-4.55,16.528-31.643,15.1-41.505a1.592,1.592,0,0,1-.018-.236c.041-1.625.225-19.784-11.239-13.6-9.224,4.975-12.817,8.379-13.815,13.319a13.123,13.123,0,0,1-5.637,8.361c-8.084,5.342-22.679,15.913-24.729,23.837,0,0-2.287,7.05-4.952,10.477C77.42,105,77.219,126.434,77.2,129.944v.012a1.375,1.375,0,0,1-.721,1.152c-1.991,1.146-11.31,5.537-19.612-7.067-9.354-14.205-10.418,23.648,28.523,12.108Z" transform="translate(-21.347 -18.529)" fill="#ffccfe" stroke="#ffccfe" stroke-miterlimit="10" stroke-width="1"/>
    <g id="Group_540" data-name="Group 540">
      <path id="bulb" d="M87.289,69.835c-9.963-2.31-20.061,4.408-22.514,14.974-1.8,7.735.372,12.793,2.275,17.254,1.43,3.339,2.665,6.216,1.861,9.685l-1.6,6.884a5.187,5.187,0,0,0,3.735,6.293l6.571,1.525a5.176,5.176,0,0,0,6.122-4.006l1.619-6.985c.8-3.433,3.02-5.306,5.832-7.682,3.51-2.96,7.877-6.642,9.72-14.589,2.452-10.565-3.664-21.042-13.62-23.353h0Zm-8.9,53.323-6.571-1.525a1.815,1.815,0,0,1-1.211-2.245l1.247-5.365L81.7,116.31l-1.247,5.365a1.814,1.814,0,0,1-2.074,1.483ZM89.02,105.195c-2.529,2.133-5.123,4.325-6.447,7.853l-10.093-2.34c.343-3.735-1.01-6.908-2.322-9.98-1.79-4.184-3.64-8.5-2.092-15.163C70.1,76.808,78.384,71.23,86.532,73.115s13.13,10.554,11.1,19.3c-1.59,6.849-5.159,9.862-8.61,12.769h0Z" transform="translate(-26.524 -28.673)" fill="#ffaaf5"/>
      <line id="bulb-line-3" y1="6.819" x2="8.409" transform="translate(73.859 35.058)" fill="none" stroke="#ffaaf5" stroke-linecap="round" stroke-miterlimit="10" stroke-width="5"/>
      <line id="bulb-line-2" x1="4.916" y1="9.644" transform="translate(46.459 27.021)" fill="none" stroke="#ffaaf5" stroke-linecap="round" stroke-miterlimit="10" stroke-width="5"/>
      <line id="bulb-line-1" y1="10.548" x2="2.594" transform="translate(63.571 26.023)" fill="none" stroke="#ffaaf5" stroke-linecap="round" stroke-miterlimit="10" stroke-width="5"/>
    </g>
  </g>
</svg>
