<svg xmlns="http://www.w3.org/2000/svg" width="119.017" height="333.511" viewBox="0 0 119.017 333.511">
  <g id="tulip-2" transform="translate(0)">
    <g id="stem" transform="translate(12.806 90.633)">
      <path id="Path_6" data-name="Path 6" d="M73.916,431.76a47.179,47.179,0,0,1-2.05-39.632c4.975-12.137,14.749-21.515,23.311-31.448s16.445-21.745,16.244-34.858c-.189-12.291-7.705-23.595-17.5-31.023s-21.669-11.534-33.493-14.885c-10.24-2.9-22.041-6.518-26.041-16.386-3.811-9.407,1.69-20.239,9.26-27s17.083-11,24.871-17.5,13.963-16.758,11.121-26.5l-9.171,1.111c-3.386,8.793-10.37,15.677-17.633,21.674s-15.086,11.469-21.1,18.726-10.087,16.823-8.22,26.059c2.115,10.471,11.31,18.147,21.048,22.537s20.4,6.364,30.249,10.506,19.346,11.251,22.254,21.527c2.854,10.093-1.306,20.942-7.321,29.534S75.89,359.971,69.928,368.6a70.7,70.7,0,0,0-7.422,65.035l11.422-1.867Z" transform="translate(-22.242 -191.624)" fill="#a9f279"/>
      <path id="Path_7" data-name="Path 7" d="M74.113,430.7a46.456,46.456,0,0,1-4.243-31.678c2.387-10.678,8.858-19.518,15.9-27.637,7.061-8.137,14.737-15.866,20.049-25.338,5-8.917,7.469-19.122,4.7-29.173-2.647-9.6-9.177-17.816-17.059-23.713-8.816-6.589-19.281-10.542-29.746-13.668-8.615-2.576-18.584-4.52-25.19-11.121a16.919,16.919,0,0,1-5.064-12.439c.124-4.863,2.175-9.514,4.922-13.449,6.352-9.094,16.876-13.8,25.693-20.032,7.983-5.637,15.559-13.638,16.486-23.849a19.267,19.267,0,0,0-.656-6.943.892.892,0,0,0-.857-.65q-4.582.558-9.171,1.111a.955.955,0,0,0-.857.65c-7.965,20.309-31.785,27.507-42.575,45.76-4.993,8.45-6.719,18.732-2.033,27.7,4.32,8.261,12.557,13.821,20.948,17.337,10.347,4.337,21.621,6.21,31.7,11.215,8.261,4.1,16.2,10.613,18.655,19.878,2.765,10.418-2.056,21.2-8.09,29.51-6.435,8.87-14.684,16.3-20.558,25.6a71.916,71.916,0,0,0-8.332,56.538,68.067,68.067,0,0,0,2.31,6.931.925.925,0,0,0,1.093.62q5.708-.931,11.422-1.867c1.123-.183.644-1.891-.473-1.708q-5.708.931-11.422,1.867l1.093.62a70.135,70.135,0,0,1,3.25-57.613c5.064-9.608,12.775-17.172,19.583-25.5,6.447-7.883,12.167-17.119,12.651-27.578.449-9.65-4.585-17.946-12.037-23.719-8.267-6.4-18.359-9.254-28.2-12.273-9.72-2.984-19.606-6.459-26.922-13.845a26.358,26.358,0,0,1-7.073-11.978,25.5,25.5,0,0,1,1.117-14.914c3.723-10.193,12.078-17.509,20.315-24.1,7.995-6.4,16.415-12.693,21.976-21.468a38.2,38.2,0,0,0,3.3-6.547l-.857.65q4.582-.558,9.171-1.111l-.857-.65c2.89,10.305-4.172,20.3-11.859,26.431-8.533,6.807-19.1,11.144-26.538,19.323-6.216,6.837-10.548,16.894-6.571,25.923,3.61,8.19,12.509,12.025,20.51,14.589,4.881,1.566,9.845,2.825,14.708,4.438a100.239,100.239,0,0,1,15.635,6.518c9.236,4.916,17.432,11.966,22.183,21.432A33.5,33.5,0,0,1,109.94,325.2a36.856,36.856,0,0,1-3.492,15.647c-4.52,10.01-12.031,18.1-19.252,26.213-7.061,7.93-14.093,16.291-17.633,26.467a47.812,47.812,0,0,0,3,38.06c.538,1.01,2.068.112,1.53-.892Z" transform="translate(-21.671 -191.003)" fill="#a9f279"/>
    </g>
    <path id="petal-1" d="M88.5,11.834S76.751-2.667,65.518.766a38.052,38.052,0,0,0-9.159,3.811A3.765,3.765,0,0,0,54.9,9.139l6.884,17.4a3.779,3.779,0,0,0,4.562,2.245c6.264-1.814,19.258-5.809,19.547-7.83.378-2.665,3.3-8.143,2.606-9.118Z" transform="translate(-22.351 -0.087)" fill="#ffaaf5"/>
    <path id="petal-2" d="M152.754,25.224S146.39,3.892,138.632,2.557a20.215,20.215,0,0,0-5.673-.408,3.55,3.55,0,0,1-2.783-.768C128.728.193,125.791-.858,120.03.967c-7.038,2.228-11.718,11.085-13.8,15.937a3.561,3.561,0,0,0,1.749,4.639c8.361,3.935,31.6,14.779,35.827,15.872,5.17,1.335,5.3,3.912,9.614-11.375" transform="translate(-43.335 0.018)" fill="#ffaaf5"/>
    <path id="petal-3" d="M47.73,53.763,64.382,28.4S49.1,9.894,43.954,10.461s-3.238,3.811-3.238,3.811-2.541-2.24-3.557,1.737-1.59,19.216-1.016,20.546,4.19,16.758,4.19,16.758,5.46,2.222,7.4.443Z" transform="translate(-14.692 -4.264)" fill="#ffaaf5"/>
    <path id="petal-4" d="M62.736,78.428a11.442,11.442,0,0,1,3.935,6.429c2.37,11.109,8.237,37.723,10.1,37.723,2.346,0,15.369,6.015,21.137-2.606s9.4-25.864,9.4-33.883c0-6.234,10.317-27.353,14.914-36.459A11,11,0,0,0,122.394,40,38.957,38.957,0,0,0,97.115,18.487a12.943,12.943,0,0,0-8.267.39,23.592,23.592,0,0,1-12.5,1.058C66.1,18.333,42.616,44.794,43.686,52.411c.875,6.228,13.029,21.042,19.063,26.012Z" transform="translate(-17.856 -7.349)" fill="#ffaaf5"/>
    <path id="petal-5" d="M122.483,127.269s9.354-2.34,14.17-8.355,22.478-31.8,25.687-53.507,5.767-37.783-.071-42.226c-4.426-3.368-12.155,19.854-15.641,31.3a69.516,69.516,0,0,1-5.1,12.332l-5.921,11.145A68.664,68.664,0,0,0,128.788,97.2c-2.216,11.493-6.571,29.344-12.208,29.144l8.308.3" transform="translate(-46.739 -9.337)" fill="#ffaaf5"/>
    <path id="petal-6" d="M54.971,135.642c-18.554-5.5-16.4-.437-39.029-33.705-.248-.408-.5-.821-.745-1.235C12.781,96.158-1.33,69.059.1,59.2a1.591,1.591,0,0,0,.018-.236c-.041-1.625-.225-19.784,11.239-13.6,9.224,4.975,12.817,8.379,13.815,13.319a13.123,13.123,0,0,0,5.637,8.361c8.084,5.342,22.679,15.913,24.729,23.837,0,0,2.287,7.05,4.952,10.477,2.446,3.144,2.647,24.576,2.665,28.086v.012a1.375,1.375,0,0,0,.721,1.152c1.991,1.146,11.31,5.537,19.612-7.067,9.354-14.205,10.418,23.648-28.523,12.108Z" transform="translate(0.002 -18.023)" fill="#ffaaf5"/>
    <g id="paint-brush-symbol" transform="translate(43.886 25.876)">
      <path id="brush-handle" d="M3.54,0h4.8a3.538,3.538,0,0,1,3.54,3.54V45.565a1.571,1.571,0,0,1-1.572,1.572H1.572A1.571,1.571,0,0,1,0,45.565V3.54A3.538,3.538,0,0,1,3.54,0Z" transform="translate(10.511 76.163) rotate(-152.19)" fill="#fff" stroke="#ffccfe" stroke-miterlimit="10" stroke-width="1"/>
      <path id="brush" d="M114.485,56.706c9.649-6.577,12.285-10.731,13-12.574a.58.58,0,0,1,1.034-.077c4.916,8.013,4.544,36.8-9.354,30.568C110.107,70.563,105.823,62.609,114.485,56.706Z" transform="translate(-88.791 -43.772)" fill="#fff" stroke="#ffccfe" stroke-miterlimit="10" stroke-width="1"/>
    </g>
  </g>
</svg>
