<svg xmlns="http://www.w3.org/2000/svg" width="24.083" height="26.09" viewBox="0 0 24.083 26.09">
  <path id="Icon_ionic-md-flower" data-name="Icon ionic-md-flower" d="M25.892,16.42a4.643,4.643,0,0,0-2.013-8.855,4.723,4.723,0,0,0-2.672.822l.038-.351a4.7,4.7,0,0,0-9.407,0l.038.351A4.669,4.669,0,1,0,7.191,16.42,4.643,4.643,0,0,0,9.2,25.275a4.723,4.723,0,0,0,2.672-.822l-.038.351a4.7,4.7,0,0,0,9.407,0l-.038-.351a4.669,4.669,0,1,0,4.685-8.034Zm-9.351,4.66a4.66,4.66,0,1,1,4.7-4.66A4.684,4.684,0,0,1,16.541,21.08Z" transform="translate(-4.5 -3.375)" fill="#84aeff"/>
</svg>
