<svg id="logo" xmlns="http://www.w3.org/2000/svg" xmlns:xlink="http://www.w3.org/1999/xlink" width="123.32" height="135.6" viewBox="0 0 123.32 135.6">
  <defs>
    <clipPath id="clip-path">
      <rect id="Rectangle_73" data-name="Rectangle 73" width="123.32" height="135.6" fill="none"/>
    </clipPath>
  </defs>
  <g id="Group_505" data-name="Group 505" clip-path="url(#clip-path)">
    <path id="Path_752" data-name="Path 752" d="M123.206,267.613l-7.514-34.6L67.785,276.654a15.354,15.354,0,0,0-2.4,3.215L11.5,237.405.757,279.731c-1.377,3.361-.8,7.745,1.1,8.255L62.01,327.979a1.129,1.129,0,0,0,.126.049,3.614,3.614,0,0,0,1.152.37c.113.016.222.017.333.023a2.431,2.431,0,0,0,1.673-.324c.073-.038.136-.083.2-.126a5.725,5.725,0,0,0,1.294-1.1l55.052-54.644a5,5,0,0,0,1.364-4.61" transform="translate(0 -192.864)" fill="#c4daf2"/>
    <path id="Path_753" data-name="Path 753" d="M68.006,52.495l49.718,35.56a6.989,6.989,0,0,0,8.946-.682L167.931,47.12a6.989,6.989,0,0,0-1.124-10.9L111.7,1.1a6.989,6.989,0,0,0-8.949,1.216L66.879,42.133a6.989,6.989,0,0,0,1.127,10.361" transform="translate(-53.869 0)" fill="#c4daf2"/>
    <path id="Path_754" data-name="Path 754" d="M396.611,330.14l-2.225,33.488a.926.926,0,0,0,1.582.712l46.772-47.3a.925.925,0,0,0,.252-.817l-4.867-26.586a.925.925,0,0,0-1.532-.519l-35.88,32.534a12.579,12.579,0,0,0-4.1,8.484" transform="translate(-326.429 -239.105)" fill="#fff"/>
    <path id="Path_755" data-name="Path 755" d="M40.064,328.439,83.872,357.28a4.7,4.7,0,0,1,2.106,4.258l-2.5,35.674a.594.594,0,0,1-.918.456L31.609,364.32a2.917,2.917,0,0,1-1.218-3.205l8.773-32.335a.594.594,0,0,1,.9-.341" transform="translate(-25.07 -271.766)" fill="#fff"/>
    <path id="Path_756" data-name="Path 756" d="M136.136,29.266,102.641,66a3.911,3.911,0,0,0,.6,5.806l43.567,31.473a3.912,3.912,0,0,0,4.9-.256l40.17-35.936a3.911,3.911,0,0,0-.494-6.206L141.141,28.61a3.911,3.911,0,0,0-5,.656" transform="translate(-84.11 -23.167)" fill="#fff"/>
    <path id="Path_757" data-name="Path 757" d="M267.749,107.181a6.057,6.057,0,0,1,2.056,6.078,14.214,14.214,0,0,1-3.378,6.78,11.061,11.061,0,0,1-5.811,3.845,6.238,6.238,0,0,1-5.692-1.606,10.931,10.931,0,0,0-2.754-1.733q-1.557-.691-3.276,1.285a3.421,3.421,0,0,0-.8,3.342,9.425,9.425,0,0,0,1.768,3.4,18.686,18.686,0,0,0,2.163,2.354,15.572,15.572,0,0,0,5.67,3.165,11.074,11.074,0,0,0,6.481.019,13.621,13.621,0,0,0,6.356-4.443,14.377,14.377,0,0,0,2.727-4.76q.948-2.71,1.5-4.943a7.868,7.868,0,0,1,1.085-2.842,1.969,1.969,0,0,1,2-.85,4.182,4.182,0,0,1,1.731.874,9.617,9.617,0,0,1,3.264,5.519,16.037,16.037,0,0,1-.24,6.86,29.46,29.46,0,0,1-2.758,7.13,34.743,34.743,0,0,1-4.326,6.3A31.611,31.611,0,0,1,265.2,151a21.755,21.755,0,0,1-11.186,2.2,17.049,17.049,0,0,1-10.007-4.319A20.717,20.717,0,0,1,237.507,139a21.9,21.9,0,0,1,0-12.02,31.176,31.176,0,0,1,6.93-12.367,37.743,37.743,0,0,1,5.291-4.991,26.8,26.8,0,0,1,6.133-3.627,14.34,14.34,0,0,1,6.264-1.179,9.089,9.089,0,0,1,5.622,2.367" transform="translate(-195.889 -86.742)" fill="#93c4f9"/>
  </g>
</svg>
